<?xml version="1.0" standalone="no"?>
<!DOCTYPE svg PUBLIC "-//W3C//DTD SVG 20010904//EN"
 "http://www.w3.org/TR/2001/REC-SVG-20010904/DTD/svg10.dtd">
<svg version="1.0" xmlns="http://www.w3.org/2000/svg"
 width="426.000000pt" height="664.000000pt" viewBox="0 0 426.000000 664.000000"
 preserveAspectRatio="xMidYMid meet">

<g transform="translate(0.000000,664.000000) scale(0.100000,-0.100000)"
fill="#000000" stroke="none">
<path d="M2041 6525 c-57 -52 -350 -368 -457 -495 -892 -1050 -1253 -1712
-1338 -2460 -53 -458 18 -900 208 -1287 186 -379 427 -659 748 -870 127 -83
349 -190 519 -248 166 -58 216 -91 255 -172 l29 -58 5 -376 c5 -349 6 -378 24
-397 40 -45 125 -31 146 24 6 14 10 174 10 368 0 367 4 405 53 476 41 62 97
95 243 142 404 132 715 338 966 638 280 334 451 736 509 1190 16 124 16 459 0
580 -69 541 -300 1080 -704 1645 -316 441 -642 836 -961 1166 -180 186 -191
192 -255 134z m277 -427 c304 -312 426 -514 493 -819 31 -137 33 -405 5 -544
-50 -252 -146 -459 -320 -694 -85 -113 -282 -357 -296 -366 -7 -4 -10 174 -10
503 l0 508 78 54 c170 118 302 277 310 374 3 44 1 55 -22 79 -17 18 -35 27
-56 27 -36 0 -62 -25 -138 -129 -26 -35 -75 -88 -109 -119 l-63 -55 0 652 c0
358 2 651 4 651 2 0 58 -55 124 -122z m-310 -1009 l-3 -370 -62 56 c-114 102
-193 252 -214 401 -12 89 -20 108 -54 130 -38 25 -86 15 -112 -25 -27 -41 -29
-83 -7 -189 43 -208 154 -380 352 -544 48 -40 90 -77 94 -83 9 -12 11 -615 2
-615 -3 0 -11 6 -18 13 -8 6 -54 47 -103 89 -155 135 -264 274 -357 458 -103
203 -145 356 -153 558 -17 410 127 720 532 1141 l100 104 3 -377 c1 -208 1
-544 0 -747z m-820 56 c-20 -189 10 -418 79 -605 125 -336 302 -576 626 -843
l117 -98 0 -287 0 -287 -52 60 c-134 154 -373 382 -472 449 -54 36 -97 35
-130 -5 -47 -55 -30 -98 70 -179 101 -82 351 -333 426 -428 36 -46 86 -120
112 -165 l46 -82 0 -228 0 -229 -92 95 c-51 52 -182 165 -290 250 -397 315
-562 529 -673 876 -51 159 -69 390 -45 576 13 100 -10 148 -78 161 -50 10 -86
-33 -101 -121 -22 -124 -25 -290 -7 -423 26 -196 74 -345 167 -520 139 -262
290 -431 629 -700 174 -139 378 -341 440 -437 l45 -69 3 -140 4 -140 -60 80
c-149 202 -374 381 -627 500 -137 64 -181 77 -222 64 -34 -12 -63 -52 -63 -89
0 -32 45 -77 97 -96 74 -28 220 -103 298 -152 203 -130 387 -335 486 -539 27
-56 49 -104 49 -107 0 -9 -153 41 -294 94 -277 105 -565 303 -741 509 -208
243 -311 419 -410 700 -132 373 -151 840 -50 1242 86 342 203 618 395 937 123
205 314 480 325 469 2 -2 -1 -43 -7 -93z m2013 -165 c296 -434 487 -878 566
-1315 22 -127 28 -525 10 -665 -68 -507 -311 -970 -672 -1276 -173 -146 -375
-268 -555 -334 l-85 -31 75 76 c120 123 302 266 400 315 71 35 100 67 100 111
0 29 -7 43 -31 63 -41 35 -71 33 -153 -9 -258 -133 -505 -364 -638 -597 l-29
-53 5 135 c3 78 12 160 21 194 51 184 206 364 525 611 424 329 646 630 750
1019 33 121 57 330 46 391 -15 80 -99 113 -151 60 -14 -13 -25 -32 -25 -42 0
-10 -5 -70 -10 -133 -21 -249 -116 -498 -264 -697 -77 -103 -252 -279 -387
-389 -286 -233 -372 -308 -436 -383 l-68 -79 -3 112 -3 111 40 80 c39 78 108
172 193 264 24 25 102 109 174 186 298 318 427 494 550 748 130 272 168 434
169 727 0 176 -2 199 -20 235 -16 32 -28 42 -57 49 -46 12 -85 -4 -98 -39 -5
-14 -7 -80 -3 -153 7 -148 -6 -279 -44 -427 -89 -357 -276 -646 -708 -1095
-56 -58 -122 -127 -148 -155 l-47 -50 0 383 0 383 24 47 c29 58 98 150 286
382 175 216 262 347 345 515 134 272 195 557 180 845 l-6 135 48 -65 c27 -36
87 -121 134 -190z"/>
</g>
</svg>
