<?xml version="1.0" encoding="utf-8"?>

<!DOCTYPE svg PUBLIC "-//W3C//DTD SVG 1.1//EN" "http://www.w3.org/Graphics/SVG/1.1/DTD/svg11.dtd">
<!-- Uploaded to: SVG Repo, www.svgrepo.com, Generator: SVG Repo Mixer Tools -->
<svg version="1.1" id="_x32_" xmlns="http://www.w3.org/2000/svg" xmlns:xlink="http://www.w3.org/1999/xlink" 
	 width="800px" height="800px" viewBox="0 0 512 512"  xml:space="preserve">
<style type="text/css">
<![CDATA[
	.st0{fill:#000000;}
]]>
</style>
<g>
	<path class="st0" d="M422.969,193.281c2.313-7.922,3.594-16.313,3.594-24.969c0-42.469-29.375-78.063-68.875-87.844
		C346.813,34.406,305.438,0,256,0s-90.813,34.406-101.75,80.469c-39.438,9.781-68.813,45.375-68.813,87.844
		c0,8.656,1.281,17.047,3.594,24.969C64.313,212.469,48.406,242.313,48.406,276c0,57.75,46.781,104.563,104.563,104.563
		c14.625,0,28.563-2.969,41.188-8.406c1.922,1.594,3.844,3.125,5.844,4.563V512h112V376.641c2-1.438,3.922-2.891,5.75-4.484
		c12.719,5.438,26.656,8.406,41.281,8.406c57.781,0,104.563-46.813,104.563-104.563
		C463.594,242.313,447.688,212.469,422.969,193.281z M280,480h-48v-88.156c7.688,2,15.688,3.031,24,3.031s16.313-1.031,24-3.031V480
		z M359.031,348.563c-9.906,0-19.5-1.922-28.625-5.844l-18.156-7.844l-0.25,0.25l-14.875,12.625
		c-5.203,4.328-10.969,7.844-17.125,10.328c-7.594,3.125-15.688,4.797-24,4.797s-16.406-1.672-24-4.797
		c-6.156-2.484-11.922-6-17.125-10.328L200,335.125l-0.25-0.25l-18.156,7.844c-9.125,3.922-18.719,5.844-28.625,5.844
		c-40,0-72.563-32.563-72.563-72.563c0-22.563,10.234-43.438,28.234-57.359l17.109-13.281l-6-20.891
		c-1.5-5.438-2.313-10.875-2.313-16.156c0-26.953,18.313-50.313,44.484-56.719l18.953-4.719l4.563-19.031
		C193.188,54.969,222.25,32,256,32s62.813,22.969,70.563,55.844l4.469,19.031l19.047,4.719
		c26.172,6.406,44.484,29.766,44.484,56.719c0,5.281-0.813,10.719-2.313,16.156l-6,20.891l17.109,13.281
		c18,13.922,28.234,34.797,28.234,57.359C431.594,316,399.031,348.563,359.031,348.563z"/>
</g>
</svg>